PathFileType	4	(X/Y/Z)	./resultDataOpenSim/trcMotMarkerGrf/sub06/qtm-03-04.trc
DataRate	CameraRate	NumFrames	NumMarkers	Units	OrigDataRate	OrigDataStartFrame	OrigNumFrames
250.000000	250.000000	11	24	m	250.000000	368	490
Frame#	Time	L.Toe.Tip			R.Toe.Tip			L.Ankle.Lat			R.Ankle.Lat			L.Ankle.Med			R.Ankle.Med			L.Heel			R.Heel			L.Knee.Lat			R.Knee.Lat			L.Knee.Med			R.Knee.Med			L.Thigh.Upper			R.Thigh.Upper			L.ASIS			R.ASIS			V.Sacral			L.Acromium			R.Acromium			C7			L.Elbow			R.Elbow			L.Wrist.Lat			R.Wrist.Lat
		X1	Y1	Z1	X2	Y2	Z2	X3	Y3	Z3	X4	Y4	Z4	X5	Y5	Z5	X6	Y6	Z6	X7	Y7	Z7	X8	Y8	Z8	X9	Y9	Z9	X10	Y10	Z10	X11	Y11	Z11	X12	Y12	Z12	X13	Y13	Z13	X14	Y14	Z14	X15	Y15	Z15	X16	Y16	Z16	X17	Y17	Z17	X18	Y18	Z18	X19	Y19	Z19	X20	Y20	Z20	X21	Y21	Z21	X22	Y22	Z22	X23	Y23	Z23	X24	Y24	Z24

368	1.468	1.411956	0.09064776	-0.040034727	0.92632377	0.035486181	0.13447998	1.286768	0.10667238	-0.051873968	0.79389839	0.076518386	0.15397472	1.2969501	0.12348118	0.031764523	0.82220551	0.097582556	0.069248805	1.2221541	0.067577462	-0.0023229895	0.74011283	0.064094595	0.091834954	1.2892955	0.48586912	-0.059281602	0.95041737	0.43842937	0.18946764	1.2837864	0.47675219	0.060622757	0.93348366	0.43486733	0.058267181	1.0755788	0.81689637	-0.095654499	1.0176013	0.79790829	0.24941351	1.1347845	0.86236315	-0.041819274	1.1208949	0.85316392	0.20816186	0.94212565	0.92448686	0.079872066	1.0425882	1.3407485	-0.093541046	1.0791853	1.3214449	0.26577377	0.9856833	1.3677619	0.094354075	0.93652017	1.0444102	-0.1494343	1.0939491	1.0010605	0.34593786	1.0318052	0.82413294	-0.19772467	1.3348379	0.96226485	0.28750182
369	1.472	1.430147	0.093119574	-0.039620275	0.92635546	0.035433004	0.13450159	1.3043887	0.10535557	-0.051706897	0.79435839	0.077211819	0.1540549	1.3139948	0.12217376	0.032206152	0.82267585	0.098096907	0.069357341	1.2409614	0.064245777	-0.0022051438	0.74040068	0.065246438	0.091984156	1.2947378	0.48372703	-0.059035489	0.95405038	0.43780164	0.18947052	1.2896776	0.47463589	0.061026038	0.93741101	0.43427849	0.05820868	1.0824784	0.81539324	-0.095607797	1.023098	0.79678156	0.24916123	1.141723	0.86071307	-0.04166073	1.1266137	0.85172079	0.20867401	0.94852292	0.92317556	0.079376928	1.0485623	1.3391553	-0.093647679	1.0849953	1.3199075	0.26587777	0.99166943	1.3663746	0.094271958	0.94217454	1.0431037	-0.14912909	1.1012684	0.99946017	0.34569588	1.0353155	0.82229772	-0.19831411	1.3421105	0.9624438	0.28641322
370	1.476	1.4480437	0.09564565	-0.039189423	0.92639897	0.035394332	0.13452627	1.3217797	0.10438485	-0.051519327	0.79483924	0.077949822	0.15418477	1.3309776	0.12114296	0.032762686	0.82321508	0.098640912	0.069461747	1.2595618	0.061419883	-0.0020771916	0.74068724	0.066457261	0.092208602	1.3001014	0.48142971	-0.058759166	0.95773038	0.43716702	0.18948568	1.2954825	0.47241038	0.06149145	0.94134266	0.43373486	0.058164127	1.089455	0.81384344	-0.095586953	1.0286796	0.79566053	0.24889104	1.1486951	0.8590505	-0.041502101	1.1325652	0.85027116	0.20895081	0.95493067	0.92185361	0.078758208	1.0545568	1.3375675	-0.093760716	1.0908447	1.3183805	0.26596398	0.99763381	1.3649935	0.094249853	0.94792145	1.0417885	-0.14882027	1.1085393	0.99786075	0.34538182	1.0389306	0.8204681	-0.19891452	1.3493163	0.9624944	0.2853371
371	1.48	1.4656092	0.0981905	-0.038813051	0.92645144	0.035371303	0.13454291	1.3388496	0.10374095	-0.051308287	0.79532397	0.07875283	0.15436943	1.3476583	0.12039531	0.033312023	0.82382246	0.099204478	0.069562065	1.2778779	0.059111634	-0.0019786455	0.74097118	0.067731288	0.09251159	1.3054189	0.47900211	-0.058441866	0.96146545	0.43652655	0.18951493	1.301241	0.47009996	0.062024326	0.94526948	0.43322242	0.058131401	1.0964811	0.81226104	-0.095575968	1.0343288	0.79452474	0.24857719	1.1557051	0.85738719	-0.041362139	1.1387066	0.8488134	0.20906868	0.96136327	0.92052437	0.078021065	1.0605738	1.3359873	-0.093887908	1.0967344	1.3168688	0.26602593	1.0036307	1.3635772	0.094235722	0.95375765	1.0404725	-0.14851173	1.1157488	0.99626041	0.34499018	1.0426587	0.81864722	-0.19952836	1.3564559	0.96241615	0.28427174
372	1.484	1.4828113	0.10073439	-0.038549615	0.92650873	0.035356539	0.13453949	1.3555225	0.10338946	-0.05108594	0.79581806	0.079618275	0.15461112	1.3638226	0.11998376	0.03365996	0.82445281	0.0997936	0.0696916	1.2958547	0.057312029	-0.0019290106	0.74125986	0.069071202	0.092899355	1.3107258	0.47647813	-0.058091489	0.96526673	0.43588098	0.18956158	1.3069613	0.46772456	0.062624125	0.94917555	0.43272584	0.058127749	1.1035455	0.8106617	-0.095570884	1.040017	0.79336142	0.24817364	1.162767	0.85573442	-0.04125601	1.1449646	0.84732523	0.20912215	0.96783316	0.91918173	0.07724088	1.0666182	1.334417	-0.09403344	1.1026606	1.3153763	0.26605526	1.0096633	1.3621245	0.094191018	0.95968129	1.0391607	-0.14821596	1.122889	0.99465791	0.34452253	1.0465027	0.81684334	-0.20015335	1.3635355	0.96220793	0.28322691
373	1.488	1.4995872	0.10328068	-0.038421808	0.92656848	0.035340255	0.13451671	1.3717367	0.1032898	-0.050866086	0.79635322	0.080517217	0.15490355	1.3793765	0.1199195	0.03375239	0.82506621	0.10042338	0.069882191	1.3134437	0.055960627	-0.0018436706	0.74157306	0.070475345	0.093359406	1.3160572	0.47389132	-0.057722764	0.96914557	0.43523045	0.18962648	1.312615	0.46529559	0.063282204	0.95306537	0.43223523	0.058174264	1.1106494	0.80905624	-0.095577513	1.0457478	0.79216659	0.24768348	1.169907	0.85409906	-0.041195748	1.1512849	0.84576534	0.20916696	0.97434803	0.91781803	0.076506384	1.0726934	1.3328594	-0.09419735	1.1086191	1.3139052	0.26604621	1.0157169	1.3606447	0.094087568	0.96568956	1.0378556	-0.14794747	1.1299613	0.99305683	0.34398811	1.0504671	0.81506852	-0.20078314	1.370562	0.96186715	0.28221323
374	1.492	1.5158008	0.10586369	-0.038419316	0.92662905	0.035317249	0.13448459	1.3874366	0.10340206	-0.050646154	0.79695503	0.081426328	0.15523782	1.3943885	0.12016489	0.033720334	0.82565934	0.10110451	0.070139883	1.3305582	0.0549519	-0.0015251636	0.74192849	0.071944209	0.093870065	1.3214481	0.4712754	-0.057345651	0.97311282	0.43457624	0.18971244	1.3181883	0.46282691	0.063980864	0.95696895	0.43174285	0.058269972	1.1177961	0.80745378	-0.09560275	1.0515689	0.79091686	0.24721431	1.1771426	0.8524814	-0.041183114	1.1576346	0.84410555	0.20922391	0.98092102	0.91643177	0.075850896	1.0788034	1.3313198	-0.094380423	1.1146103	1.3124566	0.26599799	1.0217792	1.3591448	0.093930501	0.97177911	1.0365571	-0.147707	1.1369709	0.9914635	0.34339579	1.0545563	0.81333116	-0.20140877	1.3775369	0.96139231	0.2812337
375	1.496	1.5312812	0.10854943	-0.038529612	0.92669018	0.035289621	0.13445198	1.4025738	0.10368621	-0.050411633	0.79761814	0.082358786	0.15561379	1.4090021	0.12068314	0.033735856	0.82625429	0.10183888	0.070454627	1.3470708	0.054184685	-0.0008346044	0.74233461	0.073482477	0.094421743	1.3269363	0.46867161	-0.056958474	0.97717591	0.43391792	0.18982034	1.3237188	0.4603463	0.064702066	0.96092186	0.43123871	0.058391389	1.1249848	0.80585933	-0.095651789	1.0575155	0.78955343	0.24692491	1.1844501	0.85088124	-0.041196651	1.1640173	0.84237359	0.2092778	0.98756997	0.91502456	0.075250481	1.0849569	1.329803	-0.094584233	1.1206409	1.3110312	0.26591288	1.0278495	1.3576307	0.093743588	0.97794814	1.0352663	-0.14748473	1.1439184	0.9898807	0.34274833	1.0587728	0.81163247	-0.2020251	1.3844582	0.9607863	0.28028836
376	1.5	1.5459115	0.11142029	-0.038766404	0.92675529	0.035264968	0.13442511	1.4170964	0.10410491	-0.050151025	0.79835163	0.083332247	0.15604111	1.4231669	0.12139708	0.033841157	0.82687487	0.10262495	0.070817611	1.3628605	0.053605391	0.00011095798	0.74279739	0.075096001	0.095015391	1.3325615	0.46613176	-0.056550807	0.98133635	0.43324897	0.1899405	1.3292751	0.45789079	0.06543798	0.96495286	0.4307165	0.058512905	1.1322121	0.80427361	-0.095722236	1.0635654	0.78803878	0.24687314	1.1917763	0.84930664	-0.041202698	1.1704705	0.84064543	0.20929334	0.99430624	0.91359626	0.074674255	1.0911592	1.3283086	-0.094810171	1.1267175	1.3096293	0.2657954	1.0339354	1.356116	0.093539014	0.98419055	1.0339878	-0.14728734	1.1507962	0.98830589	0.34204501	1.0631138	0.80997001	-0.20263304	1.3913311	0.96005296	0.27938442
377	1.504	1.5596705	0.11448949	-0.039137858	0.92683226	0.03525216	0.13440872	1.4309408	0.10462387	-0.049856078	0.7992364	0.08431727	0.15653034	1.4366686	0.12219779	0.033963013	0.8275374	0.10346228	0.071225003	1.377851	0.053196733	0.0010383551	0.74331111	0.076798149	0.095661131	1.3383608	0.46371432	-0.056111017	0.98559907	0.43256082	0.19006593	1.334909	0.45549686	0.066194168	0.96908217	0.43017643	0.058624174	1.1394802	0.80270399	-0.095809065	1.0696645	0.78644226	0.24690459	1.1990931	0.84777407	-0.041185894	1.1770277	0.8389796	0.20925137	1.0011327	0.91214967	0.074116302	1.0974084	1.326833	-0.095058773	1.1328432	1.30825	0.26565194	1.040044	1.3546215	0.093315288	0.99050204	1.0327256	-0.14712504	1.1575986	0.9867397	0.3412902	1.067577	0.80834273	-0.20323547	1.3981642	0.95919424	0.27853175
378	1.508	1.5726371	0.11758251	-0.039562619	0.92693121	0.035258395	0.13440581	1.4440652	0.10519721	-0.049517585	0.80037662	0.08526187	0.15708479	1.4494927	0.12303932	0.034081676	0.82825454	0.1043537	0.071675439	1.3920197	0.052920001	0.0017999845	0.74384946	0.078608397	0.096384191	1.3443623	0.4614755	-0.055626334	0.9899778	0.43185132	0.19020333	1.3406418	0.45320513	0.066987515	0.97331833	0.42962105	0.058735257	1.146798	0.80116567	-0.095916332	1.0757658	0.78489753	0.24676768	1.2064114	0.84629949	-0.041155753	1.1836895	0.83737824	0.20916226	1.0080465	0.91069318	0.073582573	1.1037049	1.3253757	-0.095329787	1.1390202	1.3068918	0.26548637	1.046182	1.3531626	0.093067448	0.99689512	1.0314826	-0.14697516	1.1643352	0.98519639	0.34049769	1.0721703	0.80675116	-0.20383501	1.4049534	0.9582133	0.27773056
